<svg width="112" height="28" xmlns="http://www.w3.org/2000/svg">

 <g>
  <title>background</title>
  <rect fill="none" id="canvas_background" height="28" width="112" y="-1" x="-1"/>
 </g>
 <g>
  <title>Layer 1</title>
  <path id="svg_1" d="m15.40861,22.851257l7.755715,-4.478035l-0.000053,0l0,-8.955362l-7.755666,-4.47761l-7.755616,4.47761l0,8.955362l7.75562,4.478035m-6.003996,-4.680794c-0.43754,-0.174423 -0.792946,-0.676338 -0.792946,-1.121481c0.001274,-0.445099 0.355406,-0.664528 0.792946,-0.49143c0.437588,0.174419 0.792997,0.676382 0.792997,1.122805c0,0.443771 -0.35541,0.664528 -0.792997,0.490107zm-0.814012,-3.421167c0,-0.445097 0.354132,-0.664528 0.792994,-0.491383c0.436217,0.174421 0.791672,0.676336 0.791672,1.121433c0,0.445475 -0.355407,0.664907 -0.792994,0.49143c-0.43754,-0.174417 -0.791672,-0.67733 -0.791672,-1.121481zm0.814012,-1.238184c-0.43754,-0.174425 -0.791672,-0.676056 -0.791672,-1.121483c0,-0.445097 0.354132,-0.664528 0.792949,-0.490108c0.437587,0.173431 0.79172,0.676336 0.79172,1.120159c0,0.446753 -0.35541,0.666182 -0.792997,0.491432zm4.182755,7.061054c-0.43759,-0.174423 -0.792997,-0.676386 -0.792997,-1.121532c0.001278,-0.445095 0.355408,-0.66448 0.792997,-0.491381c0.43754,0.174421 0.792944,0.676336 0.792944,1.122803c0.000048,0.443777 -0.355404,0.664528 -0.792944,0.49011zm-0.814013,-3.421122c0,-0.445097 0.354084,-0.664528 0.792946,-0.49143c0.436218,0.174423 0.791672,0.676386 0.791672,1.121485c0,0.445471 -0.355406,0.664856 -0.792946,0.491381c-0.437588,-0.174421 -0.791672,-0.67733 -0.791672,-1.121435zm0.814013,-1.23823c-0.43759,-0.174423 -0.791719,-0.676056 -0.791719,-1.121437c0,-0.445145 0.35413,-0.664528 0.792992,-0.490154c0.437588,0.173477 0.791672,0.676384 0.791672,1.120205c0.000048,0.446751 -0.355404,0.666134 -0.792944,0.491386zm-1.450912,-6.835861c0.204555,-0.328913 0.859305,-0.559254 1.464513,-0.513299c0.603506,0.044301 0.92708,0.348369 0.722858,0.67695c-0.205547,0.330233 -0.860298,0.560575 -1.464138,0.514622c-0.605207,-0.045624 -0.92878,-0.349695 -0.723233,-0.678272zm4.3234,0.324896c0.204178,-0.330235 0.860348,-0.559256 1.464184,-0.514998c0.603836,0.045954 0.928688,0.349691 0.722855,0.678601c-0.20417,0.329905 -0.86034,0.559254 -1.46413,0.514669c-0.604877,-0.045956 -0.928455,-0.349695 -0.722908,-0.678272zm3.779922,7.214691c-0.363293,0.451712 -0.879044,0.543997 -1.151047,0.208946c-0.274593,-0.336042 -0.201668,-0.97365 0.161674,-1.423992c0.362961,-0.451658 0.878998,-0.544325 1.152321,-0.207905c0.273273,0.334675 0.200066,0.97261 -0.162949,1.422951z"/>
 </g>
</svg>